<svg width="379" height="363" viewBox="0 0 379 363" fill="none" xmlns="http://www.w3.org/2000/svg">
<path d="M13.1892 30C13.1892 13.4314 26.6207 0 43.1892 0H333.215C349.783 0 363.215 13.4315 363.215 30V321.327C363.215 337.895 349.783 351.327 333.215 351.327H43.1892C26.6207 351.327 13.1892 337.895 13.1892 321.327V30Z" fill="url(#paint0_linear_3_50)"/>
<g filter="url(#filter0_d_3_50)">
<path d="M196.263 260.059C196.263 260.059 115.738 184.264 108.795 177.321C101.853 170.378 74.6586 154.757 61.3511 191.207C48.0436 227.658 73.0233 134.506 73.0233 134.506L114.682 134.506L125.675 137.977L223.436 232.886L196.263 260.059Z" fill="url(#paint1_linear_3_50)"/>
<path fill-rule="evenodd" clip-rule="evenodd" d="M343.444 125.965L309.328 105.734C311.652 98.6944 314.769 88.3766 306.194 80.855C295.641 71.5976 284.661 76.2485 278.622 80.855L259.57 45.5612C275.529 30.5179 312.8 27.6249 335.702 50.7684C360.806 76.136 355.953 109.206 343.444 125.965Z" fill="url(#paint2_linear_3_50)"/>
<path d="M343.444 125.965L239.058 230.351L211.885 203.178L309.328 105.734L343.444 125.965Z" fill="url(#paint3_linear_3_50)"/>
<path d="M166.995 137.977C182.955 122.934 220.225 120.041 243.128 143.184C268.232 168.552 263.379 201.622 250.87 218.38L159.85 309.877L159.907 309.934L146.169 323.672C138.749 331.092 126.719 331.092 119.299 323.672L52.5615 256.934C71.1973 267.186 91.9945 262.835 106.612 256.417L132.495 282.408L216.754 198.15C219.078 191.11 222.195 180.793 213.62 173.271C203.067 164.014 192.087 168.665 186.048 173.271L166.995 137.977Z" fill="url(#paint4_linear_3_50)"/>
<path fill-rule="evenodd" clip-rule="evenodd" d="M216.828 197.784C216.828 197.784 226.531 156.492 186.048 173.271L166.995 137.977C182.955 122.934 216.991 135.663 223.356 148.392C236.952 175.586 216.828 197.784 216.828 197.784Z" fill="url(#paint5_radial_3_50)"/>
<path fill-rule="evenodd" clip-rule="evenodd" d="M216.828 197.784C216.828 197.784 226.531 156.492 186.048 173.271L166.995 137.977C182.955 122.934 216.991 135.663 223.356 148.392C236.952 175.586 216.828 197.784 216.828 197.784Z" fill="url(#paint6_linear_3_50)"/>
<path d="M37.7296 228.816C61.7988 259.421 94.2167 251.504 113.524 241.234L186.048 173.271L166.995 137.977L90.9594 209.166C51.5151 217.244 61.9296 163.435 79.8659 146.078C96.4285 130.049 113.669 134.73 123.411 137.374C124.218 137.594 124.975 137.799 125.675 137.977C107.162 126.397 93.5589 126.404 91.0352 126.406L90.9594 126.406C32.5223 128.72 7.64302 190.559 37.7296 228.816Z" fill="url(#paint7_radial_3_50)"/>
<path d="M37.7296 228.816C61.7988 259.421 94.2167 251.504 113.524 241.234L186.048 173.271L166.995 137.977L90.9594 209.166C51.5151 217.244 61.9296 163.435 79.8659 146.078C96.4285 130.049 113.669 134.73 123.411 137.374C124.218 137.594 124.975 137.799 125.675 137.977C107.162 126.397 93.5589 126.404 91.0352 126.406L90.9594 126.406C32.5223 128.72 7.64302 190.559 37.7296 228.816Z" fill="url(#paint8_linear_3_50)"/>
<path d="M131.123 49.4533C154.025 26.3098 194.189 40.1962 210.149 55.2395L188.203 79.5403C182.163 74.9338 171.184 70.2832 160.631 79.5403C152.057 87.0618 155.173 97.3793 157.498 104.419L175.866 121.826C170.972 122.717 166.473 124.695 162.886 128.075L146.464 143.449L124.888 123.01C112.38 106.251 106.019 74.8209 131.123 49.4533Z" fill="url(#paint9_linear_3_50)"/>
<path d="M217.964 111.172C225.086 118.68 236.903 119.049 244.498 112.02C253.638 103.561 266.043 92.0736 277.496 81.4441C311.722 67.9683 310.823 101.526 310.823 101.526C310.823 101.526 318.345 73.1756 306.194 54.0822C299.83 41.3532 274.403 31.107 258.443 46.1503L230.824 71.8132L206.677 45.1982C206.677 45.1982 188.741 24.9476 148.24 38.8337C107.739 52.7198 114.479 95.6841 114.479 95.6841C127.208 66.9231 162.126 61.8265 174.855 71.8132C196.71 88.9598 203.794 96.2361 217.964 111.172Z" fill="url(#paint10_linear_3_50)"/>
<path d="M217.964 111.172C225.086 118.68 236.903 119.049 244.498 112.02C253.638 103.561 266.043 92.0736 277.496 81.4441C311.722 67.9683 310.823 101.526 310.823 101.526C310.823 101.526 318.345 73.1756 306.194 54.0822C299.83 41.3532 274.403 31.107 258.443 46.1503L230.824 71.8132L206.677 45.1982C206.677 45.1982 188.741 24.9476 148.24 38.8337C107.739 52.7198 114.479 95.6841 114.479 95.6841C127.208 66.9231 162.126 61.8265 174.855 71.8132C196.71 88.9598 203.794 96.2361 217.964 111.172Z" fill="url(#paint11_linear_3_50)" fill-opacity="0.2"/>
</g>
<defs>
<filter id="filter0_d_3_50" x="2.47955e-05" y="16.9315" width="378.599" height="345.206" filterUnits="userSpaceOnUse" color-interpolation-filters="sRGB">
<feFlood flood-opacity="0" result="BackgroundImageFix"/>
<feColorMatrix in="SourceAlpha" type="matrix" values="0 0 0 0 0 0 0 0 0 0 0 0 0 0 0 0 0 0 127 0" result="hardAlpha"/>
<feOffset dy="8"/>
<feGaussianBlur stdDeviation="12.45"/>
<feComposite in2="hardAlpha" operator="out"/>
<feColorMatrix type="matrix" values="0 0 0 0 0 0 0 0 0 0 0 0 0 0 0 0 0 0 0.25 0"/>
<feBlend mode="normal" in2="BackgroundImageFix" result="effect1_dropShadow_3_50"/>
<feBlend mode="normal" in="SourceGraphic" in2="effect1_dropShadow_3_50" result="shape"/>
</filter>
<linearGradient id="paint0_linear_3_50" x1="247.608" y1="351.504" x2="247.608" y2="0" gradientUnits="userSpaceOnUse">
<stop stop-color="#7F1734"/>
<stop offset="1" stop-color="#CA2352"/>
</linearGradient>
<linearGradient id="paint1_linear_3_50" x1="72.7547" y1="134.774" x2="316.03" y2="389.085" gradientUnits="userSpaceOnUse">
<stop stop-color="#FF6D70"/>
<stop offset="0.4121" stop-color="#E2577F"/>
<stop offset="1" stop-color="white"/>
</linearGradient>
<linearGradient id="paint2_linear_3_50" x1="354.217" y1="132.191" x2="266.272" y2="225.344" gradientUnits="userSpaceOnUse">
<stop stop-color="white"/>
<stop offset="1" stop-color="#DE3360"/>
</linearGradient>
<linearGradient id="paint3_linear_3_50" x1="354.217" y1="132.191" x2="266.272" y2="225.344" gradientUnits="userSpaceOnUse">
<stop stop-color="white"/>
<stop offset="1" stop-color="#DE3360"/>
</linearGradient>
<linearGradient id="paint4_linear_3_50" x1="156.651" y1="99.3736" x2="156.836" y2="339.91" gradientUnits="userSpaceOnUse">
<stop stop-color="white"/>
<stop offset="1" stop-color="#EA5B84"/>
</linearGradient>
<radialGradient id="paint5_radial_3_50" cx="0" cy="0" r="1" gradientUnits="userSpaceOnUse" gradientTransform="translate(72.4448 198.729) rotate(-8.58362) scale(155.063 243.381)">
<stop stop-color="white"/>
<stop offset="0.411147" stop-color="white"/>
<stop offset="1" stop-color="#FF6D70"/>
</radialGradient>
<linearGradient id="paint6_linear_3_50" x1="126.486" y1="34.5097" x2="126.486" y2="340.659" gradientUnits="userSpaceOnUse">
<stop stop-color="#FFFEFE" stop-opacity="0"/>
<stop offset="1" stop-color="#F90045"/>
</linearGradient>
<radialGradient id="paint7_radial_3_50" cx="0" cy="0" r="1" gradientUnits="userSpaceOnUse" gradientTransform="translate(72.4448 198.729) rotate(-8.58362) scale(155.063 243.381)">
<stop stop-color="white"/>
<stop offset="0.411147" stop-color="white"/>
<stop offset="1" stop-color="#FF6D70"/>
</radialGradient>
<linearGradient id="paint8_linear_3_50" x1="126.486" y1="34.5097" x2="126.486" y2="340.659" gradientUnits="userSpaceOnUse">
<stop stop-color="#FFFEFE" stop-opacity="0"/>
<stop offset="1" stop-color="#F90045"/>
</linearGradient>
<linearGradient id="paint9_linear_3_50" x1="186.616" y1="130.787" x2="130.746" y2="75.6788" gradientUnits="userSpaceOnUse">
<stop stop-color="#F5C0CE"/>
<stop offset="1" stop-color="#FF6D70"/>
</linearGradient>
<linearGradient id="paint10_linear_3_50" x1="225.77" y1="76.6471" x2="309.434" y2="54.2294" gradientUnits="userSpaceOnUse">
<stop stop-color="white"/>
<stop offset="1" stop-color="#FB6A71"/>
</linearGradient>
<linearGradient id="paint11_linear_3_50" x1="213.592" y1="33.9683" x2="213.592" y2="333.51" gradientUnits="userSpaceOnUse">
<stop stop-color="#FFFEFE"/>
<stop offset="1" stop-color="#E23C6B"/>
</linearGradient>
</defs>
</svg>
